<?xml version="1.0" standalone="no"?>
<!DOCTYPE svg PUBLIC "-//W3C//DTD SVG 20010904//EN"
 "http://www.w3.org/TR/2001/REC-SVG-20010904/DTD/svg10.dtd">
<svg version="1.0" xmlns="http://www.w3.org/2000/svg"
 width="261.000000pt" height="324.000000pt" viewBox="0 0 261.000000 324.000000"
 preserveAspectRatio="xMidYMid meet">

<g transform="translate(0.000000,324.000000) scale(0.100000,-0.100000)"
fill="#000000" stroke="none">
<path d="M670 2640 l-110 -220 65 0 c61 0 65 -1 65 -22 0 -13 -18 -138 -40
-278 -85 -534 -160 -1006 -165 -1032 l-4 -28 274 0 c151 0 275 -2 275 -5 0 -3
-48 -124 -106 -270 -59 -146 -105 -268 -102 -270 7 -7 479 -7 486 0 4 4 36 84
72 178 l65 172 81 3 81 3 6 -83 c4 -46 7 -117 7 -158 0 -41 3 -85 6 -97 l6
-23 240 0 240 0 -6 58 c-4 31 -11 120 -16 197 -5 77 -14 187 -20 245 -11 110
-72 843 -90 1090 -6 80 -13 157 -16 173 l-6 27 -139 0 c-76 0 -139 1 -139 3 0
1 7 40 15 87 18 100 19 208 4 259 -25 84 -98 158 -189 191 -51 18 -80 20 -392
20 l-338 0 -110 -220z m806 145 c101 -30 174 -125 174 -227 0 -29 -9 -107 -20
-173 -11 -66 -20 -126 -20 -132 0 -9 39 -13 148 -15 l147 -3 7 -100 c4 -55 14
-181 23 -280 26 -299 43 -510 60 -715 9 -107 20 -244 25 -305 5 -60 12 -145
16 -188 l6 -77 -175 0 -176 0 -5 52 c-3 29 -8 110 -12 180 l-6 128 -133 0
-132 0 -68 -180 -68 -180 -178 0 c-99 0 -179 2 -179 5 0 4 195 492 217 543 4
9 -56 12 -281 12 -324 0 -294 -10 -276 91 5 30 19 115 30 189 12 74 32 203 45
285 13 83 34 211 45 285 12 74 30 190 41 256 10 67 22 149 25 183 l7 61 -47 0
c-25 0 -46 5 -46 10 0 6 34 78 75 160 l75 150 303 0 c238 0 314 -3 353 -15z"/>
<path d="M807 2645 c-26 -52 -47 -97 -47 -100 0 -3 16 -5 36 -5 l37 0 -6 -47
c-4 -27 -18 -118 -32 -203 -14 -85 -34 -213 -45 -285 -11 -71 -26 -170 -34
-220 -8 -49 -31 -193 -50 -320 -20 -126 -38 -242 -41 -257 l-4 -28 277 0 278
0 147 368 c80 202 149 375 153 385 5 14 0 17 -25 17 -17 0 -31 2 -31 5 0 3 29
63 64 133 59 119 65 136 85 260 34 215 28 285 -31 338 -57 53 -66 54 -385 54
l-298 0 -48 -95z m533 -120 c11 -13 6 -63 -29 -283 -57 -352 -108 -670 -122
-757 -6 -38 -16 -76 -21 -82 -8 -9 -48 -13 -141 -13 l-130 0 7 53 c7 53 38
253 102 652 19 121 42 265 50 320 9 55 17 106 19 113 7 20 248 17 265 -3z"/>
<path d="M1517 2085 c-26 -52 -47 -97 -47 -100 0 -3 11 -5 25 -5 14 0 25 -4
25 -10 0 -5 -116 -301 -259 -657 -142 -357 -262 -658 -265 -670 -7 -23 -7 -23
114 -23 88 0 122 3 125 13 2 6 31 87 66 180 l62 167 177 0 178 0 6 -112 c4
-62 9 -143 12 -180 l6 -68 119 0 c138 0 124 -21 109 160 -10 122 -21 251 -46
545 -8 99 -19 230 -24 290 -26 324 -41 503 -46 533 l-5 32 -142 0 -142 0 -48
-95z m171 -552 c7 -142 12 -277 12 -300 l0 -43 -126 0 c-115 0 -125 1 -122 18
5 31 213 582 219 582 3 0 11 -116 17 -257z"/>
</g>
</svg>
