<?xml version="1.0" standalone="no"?>
<!DOCTYPE svg PUBLIC "-//W3C//DTD SVG 20010904//EN"
 "http://www.w3.org/TR/2001/REC-SVG-20010904/DTD/svg10.dtd">
<svg version="1.0" xmlns="http://www.w3.org/2000/svg"
 width="231.000000pt" height="230.000000pt" viewBox="0 0 231.000000 230.000000"
 preserveAspectRatio="xMidYMid meet">

<g transform="translate(0.000000,230.000000) scale(0.100000,-0.100000)"
fill="#000000" stroke="none">
<path d="M327 1962 c-9 -10 -27 -40 -39 -67 -19 -42 -23 -67 -23 -155 0 -100
2 -108 33 -165 18 -34 58 -94 88 -135 49 -65 54 -76 45 -97 -15 -33 -14 -117
4 -207 23 -125 75 -220 135 -251 17 -9 39 -33 49 -54 11 -21 44 -60 73 -87 48
-43 58 -60 87 -144 40 -113 90 -215 126 -258 40 -48 81 -57 250 -57 170 1 205
10 249 67 32 42 84 156 121 263 23 67 36 87 76 123 27 24 61 64 75 88 15 25
39 51 55 59 59 31 111 127 134 251 18 90 19 159 4 201 -9 28 -6 36 45 104 89
117 118 181 124 264 5 81 -14 161 -51 216 -20 31 -28 34 -76 37 -65 4 -135
-18 -202 -64 -37 -24 -55 -31 -67 -25 -10 5 -53 19 -97 32 -109 31 -313 34
-361 5 -31 -18 -33 -18 -75 -1 -95 38 -262 28 -418 -25 l-55 -18 -35 28 c-101
80 -235 115 -274 72z m140 -83 c23 -11 65 -41 92 -65 48 -44 51 -45 78 -31 15
8 69 29 118 47 77 28 108 33 212 37 118 6 122 5 146 -19 13 -13 27 -31 31 -39
5 -12 7 -12 12 0 4 8 18 26 31 39 24 24 28 24 141 20 98 -4 133 -10 213 -37
53 -18 109 -41 125 -50 l29 -18 60 56 c66 61 134 92 163 75 35 -21 62 -94 62
-170 0 -65 -3 -76 -38 -130 -22 -33 -66 -91 -99 -129 -77 -91 -76 -89 -57
-126 24 -48 15 -176 -19 -251 -24 -54 -99 -148 -118 -148 -5 0 -9 17 -9 38 0
46 -29 109 -63 141 -24 22 -32 23 -99 18 -40 -3 -81 -8 -90 -12 -16 -6 -18 -1
-18 41 0 27 -9 85 -19 129 -11 44 -18 81 -16 83 2 2 12 -1 23 -7 29 -15 102
-13 132 4 30 17 83 19 113 4 21 -11 21 -10 -2 15 -14 14 -31 26 -39 26 -10 0
-12 6 -7 18 4 9 14 37 21 61 8 25 21 56 30 69 23 35 12 37 -42 4 -35 -21 -67
-31 -110 -35 -33 -3 -75 -12 -92 -21 l-32 -17 -1 28 c0 27 -1 26 -19 -12 -24
-52 -24 -113 0 -205 29 -112 32 -107 -57 -114 -97 -8 -109 -8 -205 0 -91 7
-88 2 -58 120 24 97 25 127 3 190 -16 44 -18 46 -21 22 -2 -16 -4 -28 -6 -28
-1 0 -19 9 -41 20 -24 12 -59 20 -92 20 -42 0 -61 6 -98 31 -25 17 -48 29 -51
26 -2 -2 3 -18 13 -36 13 -22 25 -31 44 -31 29 0 49 -17 49 -41 0 -52 83 -94
138 -70 l27 11 -24 -20 c-15 -13 -38 -20 -63 -20 -41 0 -79 28 -120 90 -15 23
-17 23 -17 5 -1 -11 3 -27 9 -35 6 -11 1 -21 -23 -41 l-32 -27 46 5 c31 4 56
0 77 -11 36 -18 104 -21 134 -5 11 6 21 9 23 7 2 -2 -5 -39 -15 -83 -11 -44
-19 -102 -20 -129 0 -42 -2 -47 -17 -41 -10 4 -51 10 -91 13 -70 4 -74 4 -104
-24 -38 -36 -58 -82 -58 -134 0 -22 -4 -40 -9 -40 -18 0 -94 94 -119 148 -33
74 -43 202 -18 250 9 17 16 33 16 36 0 2 -33 43 -72 89 -99 115 -148 199 -148
254 0 53 26 131 53 161 25 27 49 28 104 1z m1074 -407 c-29 -57 -65 -82 -116
-82 -30 0 -47 6 -61 21 -19 21 -19 21 8 9 56 -26 138 17 138 72 0 19 42 43 48
28 2 -5 -6 -26 -17 -48z m-665 -7 c-1 -41 -9 -44 -30 -13 -22 32 -20 48 7 48
20 0 23 -5 23 -35z m594 22 c0 -15 -28 -57 -38 -57 -4 0 -7 16 -8 35 0 30 3
35 23 35 13 0 23 -6 23 -13z m-537 -401 c40 -13 94 -26 120 -30 78 -10 87 -18
87 -81 0 -53 -1 -55 -27 -55 -62 0 -151 -37 -233 -96 -54 -38 -68 -41 -112
-18 l-32 17 64 28 c35 16 61 32 57 35 -3 3 -29 0 -59 -6 -69 -16 -102 -11
-106 15 -2 18 6 22 75 33 111 17 116 32 10 32 l-87 0 0 29 c0 34 21 41 139 42
101 1 64 17 -41 18 -43 1 -78 4 -78 8 0 4 10 17 22 30 29 31 105 31 201 -1z
m634 2 c13 -12 23 -25 23 -30 0 -4 -35 -8 -77 -9 -110 -1 -141 -17 -38 -19
108 -3 129 -9 133 -43 l3 -27 -87 0 c-107 0 -102 -14 9 -32 75 -11 86 -19 68
-47 -11 -17 -82 -11 -154 14 -50 17 -80 13 -36 -4 13 -5 53 -23 88 -39 l65
-29 -32 -17 c-44 -23 -58 -20 -112 18 -82 59 -171 96 -232 96 -27 0 -28 2 -28
56 0 53 1 55 35 70 19 7 49 14 67 14 18 1 65 12 103 25 92 32 170 33 202 3z
m-547 -315 l-1 -78 -19 23 c-30 36 -46 98 -30 117 7 8 21 15 31 15 17 0 19 -8
19 -77z m310 62 c11 -13 10 -23 -1 -57 -7 -22 -21 -50 -31 -62 -17 -20 -17
-19 -18 57 0 69 2 77 19 77 10 0 24 -7 31 -15z m-482 -117 c5 -7 40 -71 77
-141 l68 -129 41 7 c55 9 183 9 224 0 44 -10 53 0 112 114 63 123 87 161 100
161 16 0 12 -32 -16 -116 -40 -120 -88 -218 -119 -242 -26 -21 -38 -22 -186
-22 -156 0 -158 0 -189 27 -17 14 -43 51 -57 82 -34 76 -83 224 -83 250 0 24
12 27 28 9z m212 -174 c25 -57 25 -56 -2 -52 -20 3 -23 10 -26 51 -2 26 -1 47
2 47 3 0 14 -21 26 -46z m206 -40 c-5 -12 -46 -21 -46 -10 0 2 10 25 23 52
l22 49 3 -39 c2 -21 1 -44 -2 -52z"/>
<path d="M391 1814 c-41 -52 -13 -171 58 -254 l22 -25 -8 35 c-4 19 -8 60 -8
90 l0 55 43 5 43 5 -51 58 c-28 31 -58 57 -65 57 -7 0 -23 -12 -34 -26z"/>
<path d="M1809 1783 l-52 -58 44 -5 44 -5 0 -55 c0 -30 -4 -71 -8 -90 l-8 -35
20 25 c11 14 35 51 52 84 26 49 31 66 27 107 -5 49 -29 89 -54 89 -6 0 -36
-26 -65 -57z"/>
</g>
</svg>
